<svg width="2005" height="1925" xmlns="http://www.w3.org/2000/svg" xmlns:xlink="http://www.w3.org/1999/xlink" xml:space="preserve" overflow="hidden"><defs><clipPath id="clip0"><rect x="853" y="310" width="2005" height="1925"/></clipPath></defs><g clip-path="url(#clip0)" transform="translate(-853 -310)"><path d="M441.858 408.947C483.324 408.947 516.932 441.934 516.932 482.627 516.932 502.973 508.534 521.392 494.951 534.724L477.911 545.993 477.964 547.994C477.964 600.315 472.761 642.725 466.353 642.725L417.364 642.725C410.956 642.725 405.754 600.315 405.754 547.994L405.806 545.993 388.766 534.724C375.183 521.392 366.785 502.973 366.785 482.627 366.785 441.934 400.393 408.947 441.858 408.947ZM437.921 0.132402C425.484 1.04767 413.398 6.70416 404.608 16.8843 311.352 118.937 182.806 181.815 44.9451 192.815 19.3345 195.215-0.184849 216.789 0.00144414 242.494L0.00144414 367.876C0.00144414 640.422 173.476 889.762 414.343 1044.04 430.891 1054.65 452.108 1054.65 468.658 1044.04 709.523 889.762 882.999 640.422 882.999 367.876L882.999 242.494C883.184 216.789 863.665 195.215 838.054 192.815 700.193 181.815 571.647 118.937 478.393 16.8843 476.832 15.0765 475.14 13.3859 473.331 11.826 463.143 3.04272 450.357-0.782867 437.921 0.132402Z" stroke="#FFFFFF" stroke-width="14.9514" stroke-miterlimit="8" fill="#FFFFFF" fill-rule="evenodd" transform="matrix(-1 1.22465e-16 1.22465e-16 1 2297.5 638.5)"/><path d="M917.01 803.278C869.806 720.358 898.267 615.15 980.566 568.299 1062.86 521.448 1167.86 550.682 1215.06 633.601 1262.27 716.521 1233.81 821.728 1151.51 868.579 1069.21 915.43 964.214 886.197 917.01 803.278Z" stroke="#FFFFFF" stroke-width="82.0868" stroke-miterlimit="8" fill="#FFFFFF" fill-rule="evenodd"/><path d="M2717.78 559.156C2803.99 600.054 2840.96 702.581 2800.37 788.141 2759.78 873.7 2656.98 909.918 2570.78 869.02 2484.57 828.123 2447.6 725.596 2488.19 640.036 2528.78 554.477 2631.58 518.259 2717.78 559.156Z" stroke="#FFFFFF" stroke-width="82.0868" stroke-miterlimit="8" fill="#FFFFFF" fill-rule="evenodd"/><path d="M1964.45 2154.77C1890.46 2215.02 1782 2204.32 1722.2 2130.89 1662.41 2057.46 1673.9 1949.08 1747.89 1888.83 1821.87 1828.58 1930.34 1839.28 1990.13 1912.71 2049.93 1986.14 2038.44 2094.53 1964.45 2154.77Z" stroke="#FFFFFF" stroke-width="82.0868" stroke-miterlimit="8" fill="#FFFFFF" fill-rule="evenodd"/><path d="M0 0 530.273 257.737" stroke="#FFFFFF" stroke-width="66.4583" stroke-miterlimit="8" fill="#FFFFFF" fill-rule="evenodd" transform="matrix(0.996998 0.0774241 0.0774241 -0.996998 1451.74 559.949)"/><path d="M1979.43 340.303 2488.15 638.322" stroke="#FFFFFF" stroke-width="66.4583" stroke-miterlimit="8" fill="#FFFFFF" fill-rule="evenodd"/><path d="M0 0 530.273 251.103" stroke="#FFFFFF" stroke-width="66.4583" stroke-miterlimit="8" fill="#FFFFFF" fill-rule="evenodd" transform="matrix(-0.537447 0.843298 0.843298 0.537447 2585.49 1097.75)"/><path d="M2525.36 1663.13 2028.61 1975.35" stroke="#FFFFFF" stroke-width="66.4583" stroke-miterlimit="8" fill="#FFFFFF" fill-rule="evenodd"/><path d="M0 0 530.273 257.737" stroke="#FFFFFF" stroke-width="66.4583" stroke-miterlimit="8" fill="#FFFFFF" fill-rule="evenodd" transform="matrix(-0.457232 -0.889347 -0.889347 0.457232 1538.47 1806.77)"/><path d="M1074.6 1472.82 1061.36 883.373" stroke="#FFFFFF" stroke-width="66.4583" stroke-miterlimit="8" fill="#FFFFFF" fill-rule="evenodd"/></g></svg>