<svg width="966" height="967" xmlns="http://www.w3.org/2000/svg" xmlns:xlink="http://www.w3.org/1999/xlink" xml:space="preserve" overflow="hidden"><defs><clipPath id="clip0"><rect x="1717" y="388" width="966" height="967"/></clipPath><clipPath id="clip1"><path d="M2203.5 659.322 2203.5 1167.13 2405.84 1167.13 2405.84 659.322ZM1923 609 2484 609 2484 1170 1923 1170Z" fill-rule="evenodd" clip-rule="evenodd"/></clipPath><clipPath id="clip2"><rect x="1922" y="609" width="562" height="562"/></clipPath><clipPath id="clip3"><rect x="1922" y="609" width="562" height="562"/></clipPath><clipPath id="clip4"><path d="M2203.5 659.322 2203.5 1167.13 2001.16 1167.13 2001.16 659.322ZM2484 609 1923 609 1923 1170 2484 1170Z" fill-rule="evenodd" clip-rule="evenodd"/></clipPath><clipPath id="clip5"><rect x="1922" y="609" width="562" height="562"/></clipPath><clipPath id="clip6"><rect x="1922" y="609" width="562" height="562"/></clipPath><clipPath id="clip7"><rect x="1922" y="621" width="548" height="548"/></clipPath><clipPath id="clip8"><rect x="1922" y="621" width="548" height="548"/></clipPath><clipPath id="clip9"><rect x="1922" y="621" width="548" height="548"/></clipPath></defs><g clip-path="url(#clip0)" transform="translate(-1717 -388)"><g clip-path="url(#clip1)"><g clip-path="url(#clip2)"><g clip-path="url(#clip3)"><path d="M2220.27 663.347C2262.2 709.265 2320 737.557 2381.98 742.506 2393.49 743.586 2402.27 753.293 2402.19 764.859L2402.19 821.274C2402.19 943.905 2324.19 1056.09 2215.89 1125.51 2208.45 1130.29 2198.91 1130.29 2191.47 1125.51 2083.18 1056.09 2005.18 943.905 2005.18 821.274L2005.18 764.859C2005.1 753.293 2013.87 743.586 2025.39 742.506 2087.37 737.557 2145.17 709.265 2187.1 663.347 2195 654.186 2208.83 653.167 2218 661.071 2218.81 661.773 2219.57 662.534 2220.27 663.347Z" stroke="#FFFFFF" stroke-width="5.84387" fill="#13294B"/></g></g></g><path d="M1771 871.5C1771 634.846 1963.07 443 2200 443 2436.93 443 2629 634.846 2629 871.5 2629 1108.15 2436.93 1300 2200 1300 1963.07 1300 1771 1108.15 1771 871.5Z" stroke="#13294B" stroke-width="32.0833" stroke-miterlimit="8" fill="none" fill-rule="evenodd"/><path d="M1812 871.5C1812 656.385 1986.61 482 2202 482 2417.39 482 2592 656.385 2592 871.5 2592 1086.61 2417.39 1261 2202 1261 1986.61 1261 1812 1086.61 1812 871.5Z" stroke="#7F7F7F" stroke-width="32.0833" stroke-miterlimit="8" fill="none" fill-rule="evenodd"/><g clip-path="url(#clip4)"><g clip-path="url(#clip5)"><g clip-path="url(#clip6)"><path d="M297.272 54.3469C339.2 100.265 396.996 128.557 458.98 133.506 470.495 134.586 479.271 144.293 479.188 155.859L479.188 212.274C479.188 334.905 401.191 447.094 292.895 516.512 285.454 521.286 275.914 521.286 268.474 516.512 160.177 447.094 82.1807 334.905 82.1807 212.274L82.1807 155.859C82.0971 144.293 90.8732 134.586 102.388 133.506 164.372 128.557 222.168 100.265 264.097 54.3469 272.001 45.1859 285.835 44.1669 294.996 52.0711 295.809 52.7729 296.57 53.5335 297.272 54.3469Z" stroke="#FFFFFF" stroke-width="5.84375" fill="#7F7F7F" transform="matrix(-1 0 0 1 2484 609)"/></g></g></g><path d="M1733 871.5C1733 613.307 1942.08 404 2200 404 2457.92 404 2667 613.307 2667 871.5 2667 1129.69 2457.92 1339 2200 1339 1942.08 1339 1733 1129.69 1733 871.5Z" stroke="#A6A6A6" stroke-width="32.0833" stroke-miterlimit="8" fill="none" fill-rule="evenodd"/><path d="M1785 564.5C1785 506.786 1831.79 460 1889.5 460 1947.21 460 1994 506.786 1994 564.5 1994 622.214 1947.21 669 1889.5 669 1831.79 669 1785 622.214 1785 564.5Z" fill="#FFFFFF" fill-rule="evenodd"/><path d="M2405 565.5C2405 507.786 2451.79 461 2509.5 461 2567.21 461 2614 507.786 2614 565.5 2614 623.214 2567.21 670 2509.5 670 2451.79 670 2405 623.214 2405 565.5Z" fill="#FFFFFF" fill-rule="evenodd"/><path d="M2401 1182.5C2401 1124.79 2447.79 1078 2505.5 1078 2563.21 1078 2610 1124.79 2610 1182.5 2610 1240.21 2563.21 1287 2505.5 1287 2447.79 1287 2401 1240.21 2401 1182.5Z" fill="#FFFFFF" fill-rule="evenodd"/><path d="M1784 1176.5C1784 1119.34 1830.79 1073 1888.5 1073 1946.21 1073 1993 1119.34 1993 1176.5 1993 1233.66 1946.21 1280 1888.5 1280 1830.79 1280 1784 1233.66 1784 1176.5Z" fill="#FFFFFF" fill-rule="evenodd"/><path d="M1822 564.5C1822 527.221 1852 497 1889 497 1926 497 1956 527.221 1956 564.5 1956 601.779 1926 632 1889 632 1852 632 1822 601.779 1822 564.5Z" stroke="#13294B" stroke-width="32.0833" stroke-miterlimit="8" fill="#FFFFFF" fill-rule="evenodd"/><path d="M1823 1176.5C1823 1139.22 1853 1109 1890 1109 1927 1109 1957 1139.22 1957 1176.5 1957 1213.78 1927 1244 1890 1244 1853 1244 1823 1213.78 1823 1176.5Z" stroke="#13294B" stroke-width="32.0833" stroke-miterlimit="8" fill="#FFFFFF" fill-rule="evenodd"/><path d="M2438 1182.5C2438 1145.22 2468.22 1115 2505.5 1115 2542.78 1115 2573 1145.22 2573 1182.5 2573 1219.78 2542.78 1250 2505.5 1250 2468.22 1250 2438 1219.78 2438 1182.5Z" stroke="#13294B" stroke-width="32.0833" stroke-miterlimit="8" fill="#FFFFFF" fill-rule="evenodd"/><path d="M2441 564.5C2441 527.221 2471 497 2508 497 2545 497 2575 527.221 2575 564.5 2575 601.779 2545 632 2508 632 2471 632 2441 601.779 2441 564.5Z" stroke="#13294B" stroke-width="32.0833" stroke-miterlimit="8" fill="#FFFFFF" fill-rule="evenodd"/><g clip-path="url(#clip7)"><g clip-path="url(#clip8)"><g clip-path="url(#clip9)"><path d="M2369.65 746.556C2309.26 741.677 2252.99 714.026 2212.23 669.206 2204.53 660.282 2191.06 659.285 2182.14 666.978 2181.34 667.665 2180.6 668.409 2179.91 669.206 2139.15 714.024 2082.87 741.652 2022.48 746.482 2011.25 747.572 2002.71 757.056 2002.8 768.339L2002.8 823.417C2002.8 943.207 2078.75 1052.78 2184.18 1120.58 2191.41 1125.27 2200.72 1125.27 2207.96 1120.58 2313.38 1052.81 2389.34 943.287 2389.34 823.497L2389.34 768.425C2389.45 757.129 2380.9 747.625 2369.65 746.556ZM2377.96 823.491C2377.96 932.606 2312.11 1040.1 2201.81 1111.03 2198.32 1113.31 2193.82 1113.31 2190.33 1111.03 2080.03 1040.11 2014.17 932.589 2014.17 823.44L2014.17 768.362C2014.07 763 2018.07 758.444 2023.4 757.846 2086.67 752.836 2145.66 723.883 2188.33 676.89 2191.8 672.612 2198.09 671.958 2202.37 675.429 2202.9 675.864 2203.39 676.354 2203.83 676.89 2246.51 723.88 2305.48 752.848 2368.76 757.903 2374.1 758.498 2378.1 763.059 2377.99 768.425Z" stroke="#13294B" stroke-width="18.8526"/></g></g></g><path d="M2198 838C2221.75 838 2241 856.908 2241 880.233 2241 891.895 2236.19 902.453 2228.41 910.095L2218.65 916.554 2218.68 917.701C2218.68 947.691 2215.7 972 2212.03 972L2183.97 972C2180.3 972 2177.32 947.691 2177.32 917.701L2177.35 916.554 2167.59 910.095C2159.81 902.453 2155 891.895 2155 880.233 2155 856.908 2174.25 838 2198 838Z" fill="#FFFFFF" fill-rule="evenodd"/><path d="M2565.85 617.532 2586 650.896 2559.31 667.015 2539.16 633.651Z" fill="#13294B" fill-rule="evenodd"/><path d="M1945.44 507.66 1978.2 486.543 1995.1 512.751 1962.34 533.868Z" fill="#13294B" fill-rule="evenodd"/><path d="M1835.61 1126.78 1814.96 1093.73 1841.41 1077.21 1862.06 1110.26Z" fill="#13294B" fill-rule="evenodd"/><path d="M2405.64 1230.99 2437.9 1209.11 2455.4 1234.92 2423.15 1256.8Z" fill="#13294B" fill-rule="evenodd"/></g></svg>